<svg xmlns="http://www.w3.org/2000/svg" viewBox="0 0 291.5 115.82"><defs><style>.cls-1,.cls-2{fill:#f6c326;}.cls-1,.cls-4{stroke:#000;stroke-width:2px;}.cls-1,.cls-4,.cls-6,.cls-7{stroke-miterlimit:10;}.cls-3{fill:#fffdff;}.cls-4,.cls-6,.cls-7{fill:none;}.cls-5{fill:#2401ba;}.cls-6,.cls-7{stroke:#ffec00;stroke-linecap:round;}.cls-6{stroke-width:1.46px;}.cls-7{stroke-width:0.93px;}</style></defs><title>Asset 2</title><g id="Layer_2" data-name="Layer 2"><g id="Layer_1-2" data-name="Layer 1"><path class="cls-1" d="M58.48,1.06,51.54,15.23a.1.1,0,0,0,.09.15H65.52a.11.11,0,0,0,.09-.15L58.67,1.06A.11.11,0,0,0,58.48,1.06Z"/><path class="cls-2" d="M50.3,101.6c6.84-3.32,12.71-3.94,19.87-4.7a84.86,84.86,0,0,1,12-.55.28.28,0,0,0,.23-.11c.31-.37.59-.71.81-1a.27.27,0,0,0,.06-.21q-3.84-27.78-7.67-55.55a.26.26,0,0,0-.17-.22,50,50,0,0,0-32.53-.88.28.28,0,0,0-.19.23L32.32,110a.29.29,0,0,0,.39.31c2.66-1,5.06-2.12,7.55-3.3C45.93,104.32,46.76,103.32,50.3,101.6Z"/><path class="cls-3" d="M58.83,36.1V98.57A91.91,91.91,0,0,1,70.17,96.9c1.55-.16,3.48-.35,5.71-.47l-6.57-59A50.45,50.45,0,0,0,58.83,36.1Z"/><path class="cls-4" d="M50.3,101.6c6.84-3.32,12.71-3.94,19.87-4.7a84.86,84.86,0,0,1,12-.55.28.28,0,0,0,.23-.11c.31-.37.59-.71.81-1a.27.27,0,0,0,.06-.21q-3.84-27.78-7.67-55.55a.26.26,0,0,0-.17-.22,50,50,0,0,0-32.53-.88.28.28,0,0,0-.19.23L32.32,110a.29.29,0,0,0,.39.31c2.66-1,5.06-2.12,7.55-3.3C45.93,104.32,46.76,103.32,50.3,101.6Z"/><path class="cls-5" d="M0,111.45a94.68,94.68,0,0,0,14.4.28,62.38,62.38,0,0,0,12.19-1.54c4.08-1,7.33-2.4,13.67-5.18,7.68-3.37,8.07-4,12-5.56A69.84,69.84,0,0,1,70.17,94.9,73.39,73.39,0,0,1,96.9,96.38a69.06,69.06,0,0,1,10,3.32c-5.33-.61-10-.85-13.64-.94-6.7-.17-10.2-.27-15,.44a65.49,65.49,0,0,0-17,5.24c-7,3-6,3.64-12.13,6.06a76.34,76.34,0,0,1-18,4.55,51.13,51.13,0,0,1-9.28.76c-4.8-.12-8.65-1-14-2.28C4.51,112.77,1.84,112,0,111.45Z"/><path class="cls-5" d="M52.36,115.62H68.53a64.47,64.47,0,0,1,8-3.92,67.39,67.39,0,0,1,6.92-2.36A61.62,61.62,0,0,1,92,107.59a112.07,112.07,0,0,1,12.06-.47,50.11,50.11,0,0,1,7.14.29,44.48,44.48,0,0,1,4.42.76,53.09,53.09,0,0,0-10.36-3.41,56.67,56.67,0,0,0-12.44-1.27,64.44,64.44,0,0,0-13.55,1.61,88,88,0,0,0-10.13,2.81,94,94,0,0,0-8.81,3.54C57.26,112.88,54.59,114.32,52.36,115.62Z"/><path class="cls-1" d="M73.7,33.73a.1.1,0,0,0,.13-.1,15,15,0,0,0-30-.59.11.11,0,0,0,.13.11,50,50,0,0,1,29.71.58Z"/><path d="M103.19,61.43c0-2.62-.15-2.9-2.14-2.9-.32,0-.64-.14-.64-.27,0-.57,0-.61.44-.61,1.43,0,2.84.08,4.26.08.64,0,2.42-.08,4.19-.08,5.62,0,6.73,3,6.73,4.44,0,2.51-1.75,4.84-6.5,4.84a18.15,18.15,0,0,1-2.49-.22V70c0,2.18,0,2.47,2.19,2.47.89,0,1,0,1,.59,0,.2-.07.29-.44.29-1.8,0-3.21,0-4.64,0s-2.83,0-4.26,0c-.25,0-.32-.09-.32-.29,0-.55.07-.59.84-.59,1.77,0,1.82-.29,1.82-3.5ZM107,65.5c0,.35.64.44.91.44a3.68,3.68,0,0,0,4-3.81,3.43,3.43,0,0,0-3.79-3.6c-1.11,0-1.11.39-1.11,1.34Z"/><path d="M121.81,61.43c0-2.62-.15-2.9-2.15-2.9-.32,0-.64-.14-.64-.27,0-.57,0-.61.44-.61.64,0,2.27.08,3.8.08,8,0,9-.08,9.81-.08.1,0,.24.06.24.15,0,.33,1.09,2.88,1.09,3.21s-.15.2-.52.2-.37,0-.91-.62a7.32,7.32,0,0,0-2-1.6c-.74-.33-.81-.35-2.86-.35-2.39,0-2.46,0-2.46,1.34v5.08h1.6c1.92,0,2.29-.48,2.61-2.05.1-.5.15-.63.55-.63s.54,0,.54.26-.08.86-.08,2.86c0,1,.08,2,.08,2.93,0,.17-.22.19-.69.19-.18,0-.2,0-.3-.48-.37-1.91-.56-2.2-3.47-2.2h-.84v5.68c0,.79,0,.88,5.94.88a2.5,2.5,0,0,0,1.65-.82c1.4-1.73,1.5-1.91,1.95-1.91s.54,0,.54.15-.82,2-1.33,3.13c-.15.33-.22.33-.87.33-.44,0-.93,0-10.39,0-3.16,0-3.38,0-3.68,0s-.32-.09-.32-.29c0-.55.08-.59.84-.59,1.78,0,1.83-.29,1.83-3.5Z"/><path d="M141.81,61.43c0-2.62-.15-2.9-2.15-2.9-.32,0-.64-.14-.64-.27,0-.57,0-.61.44-.61,1.43,0,2.84.08,4.27.08s2.83-.08,4.26-.08c.42,0,.44,0,.44.61,0,.13-.32.27-.64.27-2,0-2.14.28-2.14,2.9v9.44c0,1.23.17,1.52,2.39,1.52,3.5,0,5,0,6.38-3.35.1-.26.25-.26.52-.26s.37,0,.37.2a38.67,38.67,0,0,1-1,4.27c-.07.13-.19.13-.36.13-1.06,0-5.3-.09-7.94-.09-3.87,0-5.15.09-6.51.09-.24,0-.32-.09-.32-.29,0-.55.08-.59.84-.59,1.78,0,1.83-.29,1.83-3.5Z"/><path d="M182.9,61.43c0-2.62-.15-2.9-1.77-2.9-.32,0-.64-.14-.64-.27,0-.57,0-.61.44-.61,1.06,0,2.47.08,3.89.08.55,0,1.61-.08,4.44-.08,5.13,0,6.06,2.31,6.06,3.49,0,2.25-1.77,3.33-4.11,3.79-.18,0-.32,0-.32.13s.17.07,1.25.33c3.85.93,3.82,3.46,3.82,3.81,0,2.79-2.36,4.18-6.23,4.18-.27,0-.72,0-4.91,0-1.42,0-2.83,0-4,0-.25,0-.32-.09-.32-.29,0-.55.07-.59.59-.59,1.77,0,1.82-.29,1.82-3.5Zm3.85,3.28h.74c3.27,0,3.77-1.81,3.77-3.06a3,3,0,0,0-3.16-3.12c-1.25,0-1.35.19-1.35,1.12Zm0,6.64c0,.77.32,1.15,1.3,1.15,3.33,0,3.85-2.53,3.85-3.3,0-2.07-1.31-3.61-3.82-3.61h-1.33Z"/><path d="M201.91,61.43c0-2.62-.15-2.9-2.15-2.9-.32,0-.64-.14-.64-.27,0-.57,0-.61.45-.61,1.42,0,2.83.08,4.26.08s2.83-.08,4.26-.08c.42,0,.45,0,.45.61,0,.13-.32.27-.64.27-2,0-2.15.28-2.15,2.9v5.48c0,5.06,3.92,5.15,5.27,5.15,3.28,0,5.08-2,5.08-6V62.16c0-3.63-.86-3.63-2.44-3.63-.22,0-.74-.07-.74-.4s.05-.48.37-.48c.79,0,2.1.08,3.11.08.83,0,2-.08,3.15-.08.32,0,.32.17.32.57,0,.24-.29.28-.84.31a1.7,1.7,0,0,0-1.82,1.87c-.12,5.8-.22,7.56-.47,8.49-.89,3.48-4.09,4.77-7.46,4.77-5,0-7.37-2.53-7.37-5.39Z"/><path d="M230.08,65.9V69c0,3.21,0,3.5,1.83,3.5.76,0,.83,0,.83.59,0,.2-.07.29-.32.29-1.43,0-2.83,0-4.26,0s-2.83,0-4.26,0c-.25,0-.32-.09-.32-.29,0-.55.07-.59.83-.59,1.78,0,1.83-.29,1.83-3.5V61.43c0-2.62-.15-2.9-2.15-2.9-.32,0-.64-.14-.64-.27,0-.57,0-.61.45-.61,1.43,0,2.83.08,4.26.08s2.83-.08,4.26-.08c.18,0,.2,0,.2.61,0,.13-.32.27-.89.27-1.5,0-1.65.28-1.65,2.9v3.48h8.06V61.43c0-2.62-.15-2.9-1.65-2.9-.57,0-.89-.14-.89-.27,0-.57,0-.61.2-.61,1.43,0,2.83.08,4.26.08s2.84-.08,4.27-.08c.42,0,.44,0,.44.61,0,.13-.32.27-.64.27-2,0-2.14.28-2.14,2.9V69c0,3.21,0,3.5,1.82,3.5.76,0,.84,0,.84.59,0,.2-.08.29-.32.29-1.43,0-2.84,0-4.27,0s-2.83,0-4.26,0c-.25,0-.32-.09-.32-.29,0-.55.07-.59.84-.59,1.77,0,1.82-.29,1.82-3.5V65.9Z"/><path d="M274.08,60.86c-.12,1.85-.12,6.84-.12,7.35,0,4.13,0,4.22,2.39,4.29.54,0,.61.06.61.5s0,.38-.39.38c-1,0-2,0-3,0s-2,0-3,0c-.37,0-.37-.18-.37-.44s0-.42.59-.44c1.72-.07,2-.09,2-1.85.05-.88.2-7.24.2-9.9a1.45,1.45,0,0,0-.59-1.3c-1-.86-1.13-.88-1.9-.92s-.79-.09-.79-.44.05-.44.35-.44c.59,0,2.17.06,2.64.08.66,0,2.39-.08,3.18-.08a.89.89,0,0,1,.54.3c3.64,3.55,7.22,7.15,11.06,10.5,0-2.44.2-4.75.2-6.45,0-3.19-.91-3.47-2.54-3.47-.49,0-.52-.14-.52-.44s0-.44.32-.44c.69,0,2.71.08,3.23.08s2.57-.08,3-.08c.22,0,.29.11.29.39s0,.49-.41.49c-1.61,0-2.12.44-2.25,2s-.44,10.1-.44,12.72c0,.48-.15.48-.76.48-.08,0-.18,0-.87-.72Z"/><path d="M176.14,72.32c-1.31,0-1.52-.17-2.15-1.33-1.16-2.18-5-10.86-6.11-13.47-.09-.2-.19-.27-.67-.27-.15,0-.56,0-.63.16-.22.37-3,6-3.93,8.71-.54,1.47-1.21,2.91-1.89,4.32-.5,1.07-.77,1.86-1.57,1.88s-.86.09-.86.51c0,.26.12.37.26.37.82,0,1.67,0,2.49,0s1.88,0,2.82,0c.34,0,.34-.22.34-.46s-.1-.42-1.35-.42c-1,0-1.28-.43-1.28-.87a5.33,5.33,0,0,1,.48-1.61h0l0,0,.06-.15,1.27-3c.18-.79,1.68-3.95,2.18-5.09l.11-.27,3.86,8.91c.15.34.28.65.39.91v0h0a2.34,2.34,0,0,1,.18.61c0,.54-.43.54-1.08.54-1,0-1,.07-1,.49,0,.26.07.39.26.39s1.18,0,3.86,0c1.31,0,2.68,0,4,0,.32,0,.29-.26.29-.46S176.52,72.32,176.14,72.32Z"/><path class="cls-6" d="M161.1,68.24a4.75,4.75,0,0,1,3-1.54c1.85-.14,2.8,1.22,5.22,1.48a7.59,7.59,0,0,0,2.95-.28"/><path d="M266.14,72.32c-1.31,0-1.52-.17-2.15-1.33-1.16-2.18-5-10.86-6.11-13.47-.09-.2-.19-.27-.67-.27-.15,0-.56,0-.63.16-.22.37-3,6-3.93,8.71-.54,1.47-1.21,2.91-1.89,4.32-.5,1.07-.77,1.86-1.57,1.88s-.86.09-.86.51c0,.26.12.37.26.37.82,0,1.67,0,2.49,0s1.88,0,2.82,0c.34,0,.34-.22.34-.46s-.1-.42-1.35-.42c-1,0-1.28-.43-1.28-.87a5.33,5.33,0,0,1,.48-1.61h0l0,0,.06-.15,1.27-3c.18-.79,1.68-3.95,2.18-5.09l.11-.27,3.86,8.91c.15.34.28.65.39.91v0h0a2.34,2.34,0,0,1,.18.61c0,.54-.43.54-1.08.54-1,0-1,.07-1,.49,0,.26.07.39.26.39s1.18,0,3.86,0c1.31,0,2.68,0,4,0,.32,0,.29-.26.29-.46S266.52,72.32,266.14,72.32Z"/><path class="cls-6" d="M251.1,68.24a4.75,4.75,0,0,1,3-1.54c1.85-.14,2.8,1.22,5.22,1.48a7.59,7.59,0,0,0,3-.28"/><path d="M102,80.38c0-1.67-.1-1.85-1.13-1.85-.2,0-.41-.08-.41-.17,0-.36,0-.39.28-.39.68,0,1.57.06,2.48.06.35,0,1-.06,2.83-.06,3.26,0,3.85,1.47,3.85,2.23,0,1.43-1.13,2.11-2.62,2.41-.1,0-.2,0-.2.08s.11,0,.8.21c2.45.59,2.43,2.2,2.43,2.42,0,1.78-1.5,2.67-4,2.67-.17,0-.45,0-3.12,0-.91,0-1.8,0-2.55,0-.16,0-.21-.06-.21-.19,0-.35,0-.37.38-.37,1.13,0,1.16-.19,1.16-2.23Zm2.45,2.09h.47c2.08,0,2.4-1.15,2.4-2a1.9,1.9,0,0,0-2-2c-.8,0-.86.13-.86.71Zm0,4.23c0,.49.2.73.83.73a2.21,2.21,0,1,0,0-4.4h-.84Z"/><path d="M114.63,80.38c0-1.67-.09-1.85-1.36-1.85-.21,0-.41-.08-.41-.17,0-.36,0-.39.28-.39.91,0,1.81.06,2.71.06s1.81-.06,2.72-.06c.26,0,.28,0,.28.39,0,.09-.2.17-.41.17-1.27,0-1.36.18-1.36,1.85v3.49c0,3.22,2.49,3.27,3.36,3.27,2.08,0,3.23-1.28,3.23-3.83V80.84c0-2.31-.55-2.31-1.56-2.31-.14,0-.47,0-.47-.25s0-.31.24-.31c.5,0,1.33.06,2,.06s1.29-.06,2-.06c.21,0,.21.11.21.36s-.19.19-.54.2a1.09,1.09,0,0,0-1.16,1.19,31.74,31.74,0,0,1-.3,5.41c-.56,2.21-2.6,3-4.75,3-3.17,0-4.69-1.61-4.69-3.43Z"/><path d="M132,82.89a1.06,1.06,0,0,0,.94-.37l2.68-2.45c.77-.7,1-1,1-1.13s0-.37-.91-.41c-.26,0-.29-.06-.29-.29s0-.27.2-.27c.74,0,1.35.06,1.62.06s1-.06,2.13-.06c.2,0,.2.17.2.29s0,.27-.42.27a3,3,0,0,0-1.07.29,41.87,41.87,0,0,0-3.56,3.06c-.06.05-.28.25-.28.31s3.22,3.34,3.61,3.76c1.39,1.46,1.66,1.48,2.35,1.48.46,0,.46.07.46.22s0,.34-.19.34l-2.75,0c-.94,0-1.86,0-2.81,0-.2,0-.18-.14-.18-.28s0-.28.73-.28c.1,0,.25-.08.25-.2,0-.39-.91-1.26-2.91-3.4a.92.92,0,0,0-.8-.38V85.2c0,2,0,2.23,1.16,2.23.48,0,.53,0,.53.37,0,.13,0,.19-.2.19-.91,0-1.81,0-2.72,0s-1.8,0-2.71,0c-.16,0-.2-.06-.2-.19,0-.35,0-.37.53-.37,1.13,0,1.16-.19,1.16-2.23V80.38c0-1.67-.09-1.85-1.36-1.85-.21,0-.41-.08-.41-.17,0-.36,0-.39.28-.39.91,0,1.8.06,2.71.06s1.81-.06,2.72-.06c.26,0,.28,0,.28.39,0,.09-.2.17-.41.17-1.27,0-1.36.18-1.36,1.85Z"/><path d="M143.81,80.38c0-1.67-.09-1.85-1.36-1.85-.21,0-.41-.08-.41-.17,0-.36,0-.39.28-.39.91,0,1.8.06,2.71.06s1.81-.06,2.72-.06c.27,0,.28,0,.28.39,0,.09-.2.17-.41.17-1.27,0-1.36.18-1.36,1.85V85.2c0,2,0,2.23,1.16,2.23.49,0,.53,0,.53.37,0,.13,0,.19-.2.19-.91,0-1.8,0-2.72,0s-1.8,0-2.71,0c-.16,0-.2-.06-.2-.19,0-.35,0-.37.53-.37,1.13,0,1.16-.19,1.16-2.23Z"/><path d="M161.05,78c.36,0,.53-.4.78-.4a.23.23,0,0,1,.27.21c.05.24.77,2.33.77,2.5s-.21.12-.3.12-.24,0-.35-.16c-.87-1.25-1.41-1.71-3.6-1.71-1,0-1,0-1,1V85.2c0,2,0,2.23,1.16,2.23.48,0,.53,0,.53.37,0,.13,0,.19-.2.19-.91,0-1.81,0-2.72,0s-1.8,0-2.71,0c-.16,0-.21-.06-.21-.19,0-.35.05-.37.54-.37,1.13,0,1.16-.19,1.16-2.23V79.55c0-1,0-1-1.12-1a3.6,3.6,0,0,0-3.52,1.71.37.37,0,0,1-.36.19c-.16,0-.29,0-.29-.18s.74-2,.77-2.33a.3.3,0,0,1,.32-.29c.2,0,.36.34,1.14.34Z"/><path d="M172.55,80.38c0-1.67-.09-1.85-1.36-1.85-.21,0-.41-.08-.41-.17,0-.36,0-.39.28-.39.91,0,1.81.06,2.72.06.4,0,1.53-.06,2.66-.06,3.58,0,4.29,1.89,4.29,2.83,0,1.6-1.12,3.08-4.15,3.08a11.74,11.74,0,0,1-1.58-.14v2.12c0,1.38,0,1.57,1.4,1.57.56,0,.61,0,.61.37,0,.13,0,.19-.28.19-1.15,0-2,0-2.95,0s-1.81,0-2.72,0c-.15,0-.2-.06-.2-.19,0-.35,0-.37.53-.37,1.13,0,1.16-.19,1.16-2.23ZM175,83c0,.22.41.28.58.28a2.34,2.34,0,0,0,2.54-2.42,2.18,2.18,0,0,0-2.41-2.3c-.71,0-.71.25-.71.86Z"/><path d="M187.2,85.2c0,2,0,2.23,1.16,2.23.49,0,.53,0,.53.37,0,.13,0,.19-.2.19-.91,0-1.81,0-2.72,0s-1.8,0-2.71,0c-.16,0-.2-.06-.2-.19,0-.35,0-.37.53-.37,1.13,0,1.16-.19,1.16-2.23V80.38c0-1.67-.09-1.85-1.36-1.85-.21,0-.41-.08-.41-.17,0-.36,0-.39.28-.39.91,0,1.81.06,2.71.06.49,0,1.37-.06,2.62-.06,3.91,0,4.3,1.84,4.3,2.7,0,1.35-1,2-2.3,2.39-.05,0-.19.07-.19.13s.09.16.3.43l2.57,3.27a1.45,1.45,0,0,0,1.27.54c.14,0,.16,0,.16.16,0,.35,0,.4-.14.4-.35,0-1.12,0-1.76,0l-1.54,0c-.16,0-.41-.44-.75-.9l-1.85-2.61c-.68-1-.9-1-1.46-1Zm0-2.23h.58c1.91,0,2.51-.94,2.51-2.09a2.09,2.09,0,0,0-2.17-2.35c-.4,0-.92.07-.92.66Z"/><path d="M198.11,80.38c0-1.67-.09-1.85-1.36-1.85-.21,0-.41-.08-.41-.17,0-.36,0-.39.28-.39.91,0,1.8.06,2.71.06s1.81-.06,2.72-.06c.26,0,.28,0,.28.39,0,.09-.2.17-.41.17-1.27,0-1.36.18-1.36,1.85V85.2c0,2,0,2.23,1.16,2.23.48,0,.53,0,.53.37,0,.13-.05.19-.2.19-.91,0-1.81,0-2.72,0s-1.8,0-2.71,0c-.16,0-.2-.06-.2-.19,0-.35,0-.37.53-.37,1.13,0,1.16-.19,1.16-2.23Z"/><path d="M211.5,87.92a.33.33,0,0,1-.34.21c-.25,0-.33,0-.52-.51-1.19-3.08-2.18-5.35-3.07-7.39h0a44.2,44.2,0,0,0-1.05,6.2c0,.81.21,1,1,1,.44,0,.55,0,.55.22s-.06.34-.19.34c-.45,0-.91,0-1.47,0-1.78,0-1.87,0-1.92,0s-.28,0-.28-.23.08-.31.5-.33c.93-.06.91-.14,1.18-1.52l1.27-6.61c-.3-.69-.46-.77-1.13-.77s-.69-.06-.69-.31,0-.25.24-.25c.87,0,1.41.06,1.82.06s.94-.06,1.83-.06c0,0,.16,0,.17.1.77,2.09,1.79,4.45,2.87,7,1.05-2.22,2.15-4.44,3.13-6.69.14-.34.25-.45.37-.45.94,0,1.54.06,1.8.06s.95-.06,2-.06c.11,0,.17,0,.17.25s0,.31-.53.31c-1,0-1.2.25-1.2,1,0,.49.11,1.61.24,6.21.05,1.5.09,1.71,1.44,1.71.24,0,.25.09.25.23s0,.33-.2.33c-.61,0-1.22,0-1.84,0-1.12,0-2.25,0-3.38,0-.21,0-.21-.13-.21-.26s.07-.3.33-.3c.76,0,1.29,0,1.29-.5,0-1.24-.17-5.09-.25-7.5h0Z"/><path d="M232.61,87.4c-.83,0-1-.11-1.37-.85-.74-1.39-3.17-6.92-3.89-8.58-.06-.12-.12-.16-.43-.16-.09,0-.35,0-.4.09-.14.24-1.89,3.83-2.5,5.55-.34.93-.77,1.85-1.2,2.75-.32.68-.49,1.18-1,1.2s-.55,0-.55.32.07.24.17.24l1.58,0,1.8,0c.21,0,.21-.14.21-.3s-.06-.26-.86-.26c-.63,0-.81-.28-.81-.56a3.45,3.45,0,0,1,.3-1h0l0,0a.42.42,0,0,1,0-.1l.8-1.88c.11-.5,1.07-2.51,1.39-3.24l.07-.17,2.46,5.67c.09.22.18.42.25.58h0a1.65,1.65,0,0,1,.12.39c0,.35-.28.35-.69.35-.63,0-.65,0-.65.31s.05.25.17.25.76,0,2.46,0c.83,0,1.71,0,2.57,0,.2,0,.18-.17.18-.3S232.85,87.4,232.61,87.4Z"/><path class="cls-7" d="M223,84.8a3,3,0,0,1,1.88-1c1.18-.09,1.78.77,3.32.94a4.71,4.71,0,0,0,1.89-.18"/></g></g></svg>