<svg xmlns="http://www.w3.org/2000/svg" viewBox="0 0 115.64 115.82"><defs><style>.cls-1,.cls-2{fill:#f6c326;}.cls-1,.cls-4{stroke:#000;stroke-miterlimit:10;stroke-width:2px;}.cls-3{fill:#fffdff;}.cls-4{fill:none;}.cls-5{fill:#2401ba;}</style></defs><title>Asset 1</title><g id="Layer_2" data-name="Layer 2"><g id="Layer_1-2" data-name="Layer 1"><path class="cls-1" d="M58.48,1.06,51.54,15.23a.1.1,0,0,0,.09.15H65.52a.11.11,0,0,0,.09-.15L58.67,1.06A.11.11,0,0,0,58.48,1.06Z"/><path class="cls-2" d="M50.3,101.6c6.84-3.32,12.71-3.94,19.87-4.7a84.86,84.86,0,0,1,12-.55.28.28,0,0,0,.23-.11c.31-.37.59-.71.81-1a.27.27,0,0,0,.06-.21q-3.84-27.78-7.67-55.55a.26.26,0,0,0-.17-.22,50,50,0,0,0-32.53-.88.28.28,0,0,0-.19.23L32.32,110a.29.29,0,0,0,.39.31c2.66-1,5.06-2.12,7.55-3.3C45.93,104.32,46.76,103.32,50.3,101.6Z"/><path class="cls-3" d="M58.83,36.1V98.57A91.91,91.91,0,0,1,70.17,96.9c1.55-.16,3.48-.35,5.71-.47l-6.57-59A50.45,50.45,0,0,0,58.83,36.1Z"/><path class="cls-4" d="M50.3,101.6c6.84-3.32,12.71-3.94,19.87-4.7a84.86,84.86,0,0,1,12-.55.28.28,0,0,0,.23-.11c.31-.37.59-.71.81-1a.27.27,0,0,0,.06-.21q-3.84-27.78-7.67-55.55a.26.26,0,0,0-.17-.22,50,50,0,0,0-32.53-.88.28.28,0,0,0-.19.23L32.32,110a.29.29,0,0,0,.39.31c2.66-1,5.06-2.12,7.55-3.3C45.93,104.32,46.76,103.32,50.3,101.6Z"/><path class="cls-5" d="M0,111.45a94.68,94.68,0,0,0,14.4.28,62.38,62.38,0,0,0,12.19-1.54c4.08-1,7.33-2.4,13.67-5.18,7.68-3.37,8.07-4,12-5.56A69.84,69.84,0,0,1,70.17,94.9,73.39,73.39,0,0,1,96.9,96.38a69.06,69.06,0,0,1,10,3.32c-5.33-.61-10-.85-13.64-.94-6.7-.17-10.2-.27-15,.44a65.49,65.49,0,0,0-17,5.24c-7,3-6,3.64-12.13,6.06a76.34,76.34,0,0,1-18,4.55,51.13,51.13,0,0,1-9.28.76c-4.8-.12-8.65-1-14-2.28C4.51,112.77,1.84,112,0,111.45Z"/><path class="cls-5" d="M52.36,115.62H68.53a64.47,64.47,0,0,1,8-3.92,67.39,67.39,0,0,1,6.92-2.36A61.62,61.62,0,0,1,92,107.59a112.07,112.07,0,0,1,12.06-.47,50.11,50.11,0,0,1,7.14.29,44.48,44.48,0,0,1,4.42.76,53.09,53.09,0,0,0-10.36-3.41,56.67,56.67,0,0,0-12.44-1.27,64.44,64.44,0,0,0-13.55,1.61,88,88,0,0,0-10.13,2.81,94,94,0,0,0-8.81,3.54C57.26,112.88,54.59,114.32,52.36,115.62Z"/><path class="cls-1" d="M73.7,33.73a.1.1,0,0,0,.13-.1,15,15,0,0,0-30-.59.11.11,0,0,0,.13.11,50,50,0,0,1,29.71.58Z"/></g></g></svg>